<?xml version="1.0" standalone="no"?>
<!DOCTYPE svg PUBLIC "-//W3C//DTD SVG 20010904//EN"
 "http://www.w3.org/TR/2001/REC-SVG-20010904/DTD/svg10.dtd">
<svg version="1.0" xmlns="http://www.w3.org/2000/svg"
 width="430.000000pt" height="430.000000pt" viewBox="0 0 430.000000 430.000000"
 preserveAspectRatio="xMidYMid meet">
<metadata>
Created by potrace 1.14, written by Peter Selinger 2001-2017
</metadata>
<g transform="translate(0.000000,430.000000) scale(0.100000,-0.100000)"
fill="#000000" stroke="none">
<path d="M298 2903 c-37 -16 -74 -48 -91 -78 -6 -11 -14 -90 -17 -175 -5 -142
-8 -158 -30 -192 -14 -20 -40 -44 -58 -52 -27 -13 -33 -21 -30 -43 2 -16 12
-32 24 -38 76 -38 94 -85 94 -253 0 -142 9 -180 51 -219 31 -29 101 -53 150
-53 l39 0 0 50 c0 54 6 48 -75 65 -41 9 -53 48 -54 178 -2 130 -17 182 -65
226 -31 29 -34 66 -5 81 11 7 31 35 45 63 20 45 24 67 24 160 0 132 13 171 62
183 18 4 36 9 41 10 4 1 12 2 17 3 6 0 10 24 10 51 l0 51 -50 -2 c-27 -2 -64
-9 -82 -16z"/>
<path d="M3892 2869 c3 -48 5 -52 30 -55 82 -8 90 -24 98 -189 6 -108 11 -137
30 -173 12 -23 31 -47 41 -53 27 -14 23 -51 -7 -80 -50 -45 -64 -93 -64 -217
0 -161 -12 -184 -100 -194 -21 -3 -26 -9 -30 -44 -8 -57 -4 -64 39 -64 80 0
161 46 186 107 11 25 15 73 15 163 0 165 19 218 93 255 13 6 22 21 24 38 1 22
-4 31 -25 40 -37 16 -70 55 -82 97 -5 19 -10 90 -10 158 0 81 -5 134 -14 155
-26 64 -102 107 -189 107 l-38 0 3 -51z"/>
<path d="M689 2680 c-62 -21 -105 -61 -132 -120 -18 -40 -20 -66 -20 -215 0
-193 7 -227 62 -288 65 -73 83 -77 361 -77 276 0 298 5 366 76 34 36 66 117
57 142 -3 7 -25 12 -59 12 -42 0 -54 -3 -54 -15 0 -29 -28 -71 -55 -83 -18 -8
-100 -12 -262 -12 l-236 0 -33 36 -34 35 0 169 0 169 35 36 c40 39 16 36 285
36 246 1 228 3 266 -35 19 -19 34 -43 34 -55 0 -19 6 -21 54 -21 30 0 57 3 59
8 10 16 -21 102 -49 135 -16 20 -49 46 -74 58 -43 22 -57 23 -283 24 -200 2
-245 -1 -288 -15z"/>
<path d="M1480 2695 c0 -7 40 -95 143 -315 209 -448 182 -400 222 -400 l34 0
134 266 133 266 133 -266 132 -266 39 0 c32 0 39 4 48 28 5 15 78 173 161 351
83 178 151 327 151 331 0 11 -107 7 -119 -5 -5 -5 -56 -109 -112 -230 -57
-121 -111 -233 -120 -249 l-18 -29 -129 259 -130 260 -36 0 -37 0 -127 -258
c-70 -141 -131 -256 -135 -255 -6 2 -223 456 -240 501 -3 9 -127 19 -127 11z"/>
<path d="M2942 2692 c-9 -3 -12 -99 -12 -358 l0 -355 58 3 57 3 0 148 c0 91 4
147 10 148 6 0 139 2 298 2 l287 2 1 -60 c0 -33 1 -100 2 -150 l2 -90 57 -3
56 -3 0 343 c1 189 -1 350 -4 360 -4 13 -16 16 -57 14 l-52 -2 -1 -137 c-1
-76 -4 -143 -7 -150 -3 -9 -71 -12 -288 -10 -156 1 -289 2 -294 2 -6 1 -10 56
-10 148 l0 147 -46 1 c-25 1 -51 -1 -57 -3z"/>
<path d="M754 1758 c-125 -33 -137 -234 -18 -284 69 -29 156 -10 162 34 4 23
3 23 -29 7 -79 -41 -169 12 -169 100 0 95 94 143 150 77 38 -46 50 -41 50 18
0 51 -12 64 -38 38 -8 -8 -15 -8 -24 -1 -21 16 -51 20 -84 11z"/>
<path d="M1290 1740 c0 -11 7 -20 15 -20 10 0 15 -10 15 -30 0 -28 -2 -29 -24
-19 -34 16 -88 3 -117 -27 -43 -46 -27 -148 28 -173 30 -14 68 -14 93 -1 10 6
21 6 24 2 3 -5 20 -8 38 -8 23 1 34 6 36 19 2 10 -3 17 -12 17 -14 0 -16 18
-16 130 l0 130 -40 0 c-33 0 -40 -3 -40 -20z m15 -110 c21 -17 20 -98 -2 -122
-37 -41 -103 -2 -103 62 0 64 59 98 105 60z"/>
<path d="M1630 1740 c0 -13 7 -20 19 -20 15 0 24 -19 46 -97 38 -138 50 -163
75 -163 23 0 30 13 61 123 20 72 39 100 39 60 0 -35 48 -168 64 -178 22 -14
49 5 58 41 30 129 55 207 68 212 19 7 30 23 24 34 -3 4 -29 8 -59 8 -43 0 -53
-3 -51 -16 1 -8 9 -19 16 -24 11 -7 11 -16 1 -51 -7 -24 -15 -53 -17 -66 -2
-12 -8 -32 -13 -45 -9 -23 -9 -23 -21 7 -6 17 -21 65 -33 107 -20 72 -24 78
-48 78 -24 0 -27 -5 -43 -77 -23 -100 -42 -153 -49 -133 -10 31 -47 165 -47
173 0 4 6 7 14 7 8 0 13 8 12 18 -2 13 -15 18 -59 20 -52 3 -57 1 -57 -18z"/>
<path d="M2917 1753 c-13 -13 -7 -33 11 -33 15 0 17 -12 17 -107 0 -96 -2
-108 -18 -111 -10 -2 -17 -11 -15 -20 2 -12 16 -16 56 -18 60 -2 75 11 43 37
-17 14 -21 26 -18 60 l3 42 73 1 c40 0 76 -3 81 -9 6 -8 6 -39 1 -87 -1 -5 -8
-8 -17 -8 -9 0 -14 -7 -12 -17 6 -32 117 -24 118 8 0 4 -9 9 -20 12 -18 5 -20
14 -20 110 0 98 1 105 21 110 42 11 14 32 -42 32 -43 0 -54 -3 -57 -17 -2 -12
3 -18 16 -18 15 0 19 -7 18 -37 -1 -21 -4 -40 -8 -43 -4 -3 -40 -5 -80 -5
l-73 0 -2 35 c-1 25 4 40 19 51 11 9 18 21 14 28 -8 12 -98 16 -109 4z"/>
<path d="M3517 1753 c-4 -3 -7 -13 -7 -21 0 -9 3 -12 7 -9 33 34 50 -177 17
-214 -9 -10 -14 -26 -10 -35 6 -14 9 -15 29 -1 20 13 26 13 51 0 42 -22 105
-11 133 22 25 28 30 84 13 129 -17 47 -84 66 -142 41 -16 -6 -18 -1 -18 44 l0
51 -33 0 c-19 0 -37 -3 -40 -7z m166 -115 c26 -20 37 -70 22 -105 -20 -47 -57
-56 -93 -23 -28 27 -29 79 -1 114 22 28 46 33 72 14z"/>
<path d="M980 1671 c-33 -9 -71 -77 -64 -115 13 -75 76 -111 154 -87 45 13 69
55 64 108 -8 82 -68 118 -154 94z m85 -46 c31 -30 32 -73 4 -109 -39 -50 -98
-22 -104 49 -3 29 2 43 20 61 31 30 50 30 80 -1z"/>
<path d="M1464 1661 c-71 -44 -65 -165 9 -191 45 -15 92 -12 117 8 29 24 19
48 -13 31 -30 -17 -76 -13 -98 7 -37 33 -24 43 59 46 l77 3 -2 34 c-1 18 -10
42 -21 53 -29 29 -90 33 -128 9z m94 -23 c7 -7 12 -19 12 -28 0 -14 -10 -17
-55 -16 -30 0 -55 3 -55 5 0 3 10 15 22 28 23 25 57 30 76 11z"/>
<path d="M2134 1670 c-27 -11 -35 -22 -25 -38 6 -10 14 -9 37 3 35 18 56 19
72 3 24 -24 14 -47 -25 -54 -79 -14 -110 -43 -93 -88 14 -37 64 -47 115 -24
17 7 29 8 33 2 4 -5 19 -10 35 -10 20 -1 27 3 27 17 0 11 -6 19 -14 19 -9 0
-15 20 -18 72 -5 59 -10 75 -28 90 -23 19 -80 23 -116 8z m99 -139 c-10 -38
-93 -53 -93 -17 0 20 28 35 67 36 26 0 30 -3 26 -19z"/>
<path d="M2323 1668 c-6 -11 6 -28 20 -28 7 0 28 -36 47 -81 43 -99 62 -113
90 -67 11 18 20 37 20 41 0 23 44 107 56 107 8 0 14 8 14 19 0 15 -7 18 -47
16 -35 -2 -49 -7 -51 -19 -2 -9 1 -16 7 -16 16 0 13 -19 -10 -70 l-21 -45 -14
39 c-8 21 -19 45 -25 52 -9 11 -7 15 5 20 17 7 22 33 6 35 -37 5 -93 3 -97 -3z"/>
<path d="M2645 1666 c-58 -25 -75 -122 -31 -173 22 -25 31 -28 85 -28 62 0 88
13 78 38 -5 13 -11 13 -44 2 -31 -11 -42 -11 -64 1 -22 11 -39 33 -39 50 0 2
35 4 79 4 89 0 101 11 74 68 -24 49 -78 64 -138 38z m89 -32 c30 -29 19 -40
-39 -40 -60 0 -71 14 -33 40 29 20 52 20 72 0z"/>
<path d="M3250 1658 c0 -10 7 -18 15 -18 8 0 15 -6 16 -12 5 -125 7 -132 29
-150 25 -20 61 -23 91 -7 12 6 25 7 32 2 7 -5 24 -10 40 -11 21 -1 27 3 27 18
0 11 -7 20 -15 20 -11 0 -15 19 -17 87 l-3 87 -37 1 c-30 1 -38 -2 -38 -17 0
-10 7 -18 15 -18 16 0 17 -1 19 -73 2 -44 -1 -50 -26 -63 -21 -11 -33 -12 -48
-4 -17 9 -20 21 -20 90 0 46 -4 81 -10 81 -51 7 -70 3 -70 -13z"/>
</g>
</svg>
